<svg width="763" height="208" viewBox="0 0 763 208" fill="none" xmlns="http://www.w3.org/2000/svg">
    <mask id="mask0_310_2" style="mask-type:alpha" maskUnits="userSpaceOnUse" x="0" y="0" width="758" height="208">
        <path d="M117.22 199.335H8L95.3756 8.05408L182.751 199.335H160.907" stroke="#658A74" stroke-width="16" stroke-linecap="round" stroke-linejoin="round" />
        <path d="M95.2764 74.208V141.885" stroke="#658A74" stroke-width="16" stroke-linecap="round" stroke-linejoin="round" />
        <path d="M95.2764 166.693L95.2764 166.91" stroke="#658A74" stroke-width="16" stroke-linecap="round" stroke-linejoin="round" />
        <path d="M212.375 40.5L224.188 63.3438L236.031 40.5H242.875L227.188 69V86H221.156V69L205.469 40.5H212.375ZM277.625 81.0938V86H253.531V81.0938H277.625ZM254.75 40.5V86H248.719V40.5H254.75ZM274.438 60.0625V64.9688H253.531V60.0625H274.438ZM277.312 40.5V45.4375H253.531V40.5H277.312ZM302.531 40.5V86H296.594V40.5H302.531ZM317.156 40.5V45.4375H282V40.5H317.156ZM355.375 44.5312L340.312 86H334.156L351.5 40.5H355.469L355.375 44.5312ZM368 86L352.906 44.5312L352.812 40.5H356.781L374.188 86H368ZM367.219 69.1562V74.0938H341.656V69.1562H367.219ZM415.281 40.5V86H409.219L386.312 50.9062V86H380.281V40.5H386.312L409.312 75.6875V40.5H415.281ZM461 61.8125V64.6875C461 68.1042 460.573 71.1667 459.719 73.875C458.865 76.5833 457.635 78.8854 456.031 80.7812C454.427 82.6771 452.5 84.125 450.25 85.125C448.021 86.125 445.521 86.625 442.75 86.625C440.062 86.625 437.594 86.125 435.344 85.125C433.115 84.125 431.177 82.6771 429.531 80.7812C427.906 78.8854 426.646 76.5833 425.75 73.875C424.854 71.1667 424.406 68.1042 424.406 64.6875V61.8125C424.406 58.3958 424.844 55.3438 425.719 52.6562C426.615 49.9479 427.875 47.6458 429.5 45.75C431.125 43.8333 433.052 42.375 435.281 41.375C437.531 40.375 440 39.875 442.688 39.875C445.458 39.875 447.958 40.375 450.188 41.375C452.438 42.375 454.365 43.8333 455.969 45.75C457.594 47.6458 458.833 49.9479 459.688 52.6562C460.562 55.3438 461 58.3958 461 61.8125ZM455.031 64.6875V61.75C455.031 59.0417 454.75 56.6458 454.188 54.5625C453.646 52.4792 452.844 50.7292 451.781 49.3125C450.719 47.8958 449.417 46.8229 447.875 46.0938C446.354 45.3646 444.625 45 442.688 45C440.812 45 439.115 45.3646 437.594 46.0938C436.094 46.8229 434.802 47.8958 433.719 49.3125C432.656 50.7292 431.833 52.4792 431.25 54.5625C430.667 56.6458 430.375 59.0417 430.375 61.75V64.6875C430.375 67.4167 430.667 69.8333 431.25 71.9375C431.833 74.0208 432.667 75.7812 433.75 77.2188C434.854 78.6354 436.156 79.7083 437.656 80.4375C439.177 81.1667 440.875 81.5312 442.75 81.5312C444.708 81.5312 446.448 81.1667 447.969 80.4375C449.49 79.7083 450.771 78.6354 451.812 77.2188C452.875 75.7812 453.677 74.0208 454.219 71.9375C454.76 69.8333 455.031 67.4167 455.031 64.6875ZM485.969 40.5V86H480.031V40.5H485.969ZM500.594 40.5V45.4375H465.438V40.5H500.594ZM537.062 60.0625V64.9688H512.438V60.0625H537.062ZM513.375 40.5V86H507.344V40.5H513.375ZM542.312 40.5V86H536.312V40.5H542.312ZM581.938 81.0938V86H557.844V81.0938H581.938ZM559.062 40.5V86H553.031V40.5H559.062ZM578.75 60.0625V64.9688H557.844V60.0625H578.75ZM581.625 40.5V45.4375H557.844V40.5H581.625ZM589.406 40.5H604.469C607.885 40.5 610.771 41.0208 613.125 42.0625C615.5 43.1042 617.302 44.6458 618.531 46.6875C619.781 48.7083 620.406 51.1979 620.406 54.1562C620.406 56.2396 619.979 58.1458 619.125 59.875C618.292 61.5833 617.083 63.0417 615.5 64.25C613.938 65.4375 612.062 66.3229 609.875 66.9062L608.188 67.5625H594.031L593.969 62.6562H604.656C606.823 62.6562 608.625 62.2812 610.062 61.5312C611.5 60.7604 612.583 59.7292 613.312 58.4375C614.042 57.1458 614.406 55.7188 614.406 54.1562C614.406 52.4062 614.062 50.875 613.375 49.5625C612.688 48.25 611.604 47.2396 610.125 46.5312C608.667 45.8021 606.781 45.4375 604.469 45.4375H595.438V86H589.406V40.5ZM616 86L604.938 65.375L611.219 65.3438L622.438 85.625V86H616Z" fill="#658A74" />
        <path d="M220.031 153.781L229.094 115.5H234.156L235.312 121.875L225.656 161H220.219L220.031 153.781ZM215.375 115.5L222.875 153.781L222.25 161H216.188L206.094 115.5H215.375ZM243.281 153.625L250.688 115.5H259.969L249.906 161H243.844L243.281 153.625ZM237 115.5L246.125 153.938L245.875 161H240.438L230.719 121.844L231.969 115.5H237ZM282.188 123.281L269.812 161H259.844L276.75 115.5H283.094L282.188 123.281ZM292.469 161L280.062 123.281L279.062 115.5H285.469L302.469 161H292.469ZM291.906 144.062V151.406H267.875V144.062H291.906ZM306.688 115.5H323.656C327.135 115.5 330.125 116.021 332.625 117.062C335.146 118.104 337.083 119.646 338.438 121.688C339.792 123.729 340.469 126.24 340.469 129.219C340.469 131.656 340.052 133.75 339.219 135.5C338.406 137.229 337.25 138.677 335.75 139.844C334.271 140.99 332.531 141.906 330.531 142.594L327.562 144.156H312.812L312.75 136.844H323.719C325.365 136.844 326.729 136.552 327.812 135.969C328.896 135.385 329.708 134.573 330.25 133.531C330.812 132.49 331.094 131.281 331.094 129.906C331.094 128.448 330.823 127.188 330.281 126.125C329.74 125.062 328.917 124.25 327.812 123.688C326.708 123.125 325.323 122.844 323.656 122.844H316.062V161H306.688V115.5ZM332.125 161L321.75 140.719L331.656 140.656L342.156 160.562V161H332.125ZM384.719 115.5V161H375.344L357.062 130.5V161H347.688V115.5H357.062L375.375 146.031V115.5H384.719ZM402.844 115.5V161H393.5V115.5H402.844ZM448.656 115.5V161H439.281L421 130.5V161H411.625V115.5H421L439.312 146.031V115.5H448.656ZM492.875 137.219V155.25C492.167 156.104 491.073 157.031 489.594 158.031C488.115 159.01 486.208 159.854 483.875 160.562C481.542 161.271 478.719 161.625 475.406 161.625C472.469 161.625 469.792 161.146 467.375 160.188C464.958 159.208 462.875 157.781 461.125 155.906C459.396 154.031 458.062 151.74 457.125 149.031C456.188 146.302 455.719 143.188 455.719 139.688V136.844C455.719 133.344 456.167 130.229 457.062 127.5C457.979 124.771 459.281 122.469 460.969 120.594C462.656 118.719 464.667 117.292 467 116.312C469.333 115.333 471.927 114.844 474.781 114.844C478.74 114.844 481.99 115.49 484.531 116.781C487.073 118.052 489.01 119.823 490.344 122.094C491.698 124.344 492.531 126.927 492.844 129.844H483.75C483.521 128.302 483.083 126.958 482.438 125.812C481.792 124.667 480.865 123.771 479.656 123.125C478.469 122.479 476.927 122.156 475.031 122.156C473.469 122.156 472.073 122.479 470.844 123.125C469.635 123.75 468.615 124.677 467.781 125.906C466.948 127.135 466.312 128.656 465.875 130.469C465.438 132.281 465.219 134.385 465.219 136.781V139.688C465.219 142.062 465.448 144.167 465.906 146C466.365 147.812 467.042 149.344 467.938 150.594C468.854 151.823 469.979 152.75 471.312 153.375C472.646 154 474.198 154.312 475.969 154.312C477.448 154.312 478.677 154.188 479.656 153.938C480.656 153.688 481.458 153.385 482.062 153.031C482.688 152.656 483.167 152.302 483.5 151.969V143.906H474.938V137.219H492.875ZM540.062 149.094C540.062 148.281 539.938 147.552 539.688 146.906C539.458 146.24 539.021 145.635 538.375 145.094C537.729 144.531 536.823 143.979 535.656 143.438C534.49 142.896 532.979 142.333 531.125 141.75C529.062 141.083 527.104 140.333 525.25 139.5C523.417 138.667 521.792 137.698 520.375 136.594C518.979 135.469 517.875 134.167 517.062 132.688C516.271 131.208 515.875 129.49 515.875 127.531C515.875 125.635 516.292 123.917 517.125 122.375C517.958 120.812 519.125 119.479 520.625 118.375C522.125 117.25 523.896 116.385 525.938 115.781C528 115.177 530.26 114.875 532.719 114.875C536.073 114.875 539 115.479 541.5 116.688C544 117.896 545.938 119.552 547.312 121.656C548.708 123.76 549.406 126.167 549.406 128.875H540.094C540.094 127.542 539.812 126.375 539.25 125.375C538.708 124.354 537.875 123.552 536.75 122.969C535.646 122.385 534.25 122.094 532.562 122.094C530.938 122.094 529.583 122.344 528.5 122.844C527.417 123.323 526.604 123.979 526.062 124.812C525.521 125.625 525.25 126.542 525.25 127.562C525.25 128.333 525.438 129.031 525.812 129.656C526.208 130.281 526.792 130.865 527.562 131.406C528.333 131.948 529.281 132.458 530.406 132.938C531.531 133.417 532.833 133.885 534.312 134.344C536.792 135.094 538.969 135.938 540.844 136.875C542.74 137.812 544.323 138.865 545.594 140.031C546.865 141.198 547.823 142.521 548.469 144C549.115 145.479 549.438 147.156 549.438 149.031C549.438 151.01 549.052 152.781 548.281 154.344C547.51 155.906 546.396 157.229 544.938 158.312C543.479 159.396 541.74 160.219 539.719 160.781C537.698 161.344 535.438 161.625 532.938 161.625C530.688 161.625 528.469 161.333 526.281 160.75C524.094 160.146 522.104 159.24 520.312 158.031C518.542 156.823 517.125 155.281 516.062 153.406C515 151.531 514.469 149.312 514.469 146.75H523.875C523.875 148.167 524.094 149.365 524.531 150.344C524.969 151.323 525.583 152.115 526.375 152.719C527.188 153.323 528.146 153.76 529.25 154.031C530.375 154.302 531.604 154.438 532.938 154.438C534.562 154.438 535.896 154.208 536.938 153.75C538 153.292 538.781 152.656 539.281 151.844C539.802 151.031 540.062 150.115 540.062 149.094ZM562.062 115.5L571.562 136.25L581.062 115.5H591.281L576.312 144.438V161H566.812V144.438L551.812 115.5H562.062ZM618.625 149.094C618.625 148.281 618.5 147.552 618.25 146.906C618.021 146.24 617.583 145.635 616.938 145.094C616.292 144.531 615.385 143.979 614.219 143.438C613.052 142.896 611.542 142.333 609.688 141.75C607.625 141.083 605.667 140.333 603.812 139.5C601.979 138.667 600.354 137.698 598.938 136.594C597.542 135.469 596.438 134.167 595.625 132.688C594.833 131.208 594.438 129.49 594.438 127.531C594.438 125.635 594.854 123.917 595.688 122.375C596.521 120.812 597.688 119.479 599.188 118.375C600.688 117.25 602.458 116.385 604.5 115.781C606.562 115.177 608.823 114.875 611.281 114.875C614.635 114.875 617.562 115.479 620.062 116.688C622.562 117.896 624.5 119.552 625.875 121.656C627.271 123.76 627.969 126.167 627.969 128.875H618.656C618.656 127.542 618.375 126.375 617.812 125.375C617.271 124.354 616.438 123.552 615.312 122.969C614.208 122.385 612.812 122.094 611.125 122.094C609.5 122.094 608.146 122.344 607.062 122.844C605.979 123.323 605.167 123.979 604.625 124.812C604.083 125.625 603.812 126.542 603.812 127.562C603.812 128.333 604 129.031 604.375 129.656C604.771 130.281 605.354 130.865 606.125 131.406C606.896 131.948 607.844 132.458 608.969 132.938C610.094 133.417 611.396 133.885 612.875 134.344C615.354 135.094 617.531 135.938 619.406 136.875C621.302 137.812 622.885 138.865 624.156 140.031C625.427 141.198 626.385 142.521 627.031 144C627.677 145.479 628 147.156 628 149.031C628 151.01 627.615 152.781 626.844 154.344C626.073 155.906 624.958 157.229 623.5 158.312C622.042 159.396 620.302 160.219 618.281 160.781C616.26 161.344 614 161.625 611.5 161.625C609.25 161.625 607.031 161.333 604.844 160.75C602.656 160.146 600.667 159.24 598.875 158.031C597.104 156.823 595.688 155.281 594.625 153.406C593.562 151.531 593.031 149.312 593.031 146.75H602.438C602.438 148.167 602.656 149.365 603.094 150.344C603.531 151.323 604.146 152.115 604.938 152.719C605.75 153.323 606.708 153.76 607.812 154.031C608.938 154.302 610.167 154.438 611.5 154.438C613.125 154.438 614.458 154.208 615.5 153.75C616.562 153.292 617.344 152.656 617.844 151.844C618.365 151.031 618.625 150.115 618.625 149.094ZM654.719 115.5V161H645.375V115.5H654.719ZM668.719 115.5V122.844H631.594V115.5H668.719ZM704.594 153.688V161H680.375V153.688H704.594ZM683.438 115.5V161H674.062V115.5H683.438ZM701.438 134.031V141.156H680.375V134.031H701.438ZM704.562 115.5V122.844H680.375V115.5H704.562ZM714.344 115.5H722.281L733.969 148.906L745.656 115.5H753.594L737.156 161H730.781L714.344 115.5ZM710.062 115.5H717.969L719.406 148.062V161H710.062V115.5ZM749.969 115.5H757.906V161H748.531V148.062L749.969 115.5Z" fill="#658A74" />
    </mask>
    <g mask="url(#mask0_310_2)">
        <rect width="757" height="208" fill="url(#paint0_linear_310_2)" />
    </g>
    <defs>
        <linearGradient id="paint0_linear_310_2" x1="119.157" y1="39.3824" x2="523.808" y2="370.528" gradientUnits="userSpaceOnUse">
            <stop stop-color="#88BB9D" />
            <stop offset="1" stop-color="#4E6959" />
        </linearGradient>
    </defs>
</svg>